# xmcd
#
# Track frame offsets: 
#        150
#        20797
#        42782
#        68372
#        73652
#        89987
#        103075
#        121580
#        143325
#        168297
#        187265
#        209105
#        226140
#        246447
#        271600
#        296862
#
# Disc length: 4259 seconds
#
# Revision: 3
# Processed by: cddbd v1.5.2PL0 Copyright (c) Steve Scherf et al.
# Submitted via: ExactAudioCopy v1.3
#
DISCID=ee10a110
DTITLE=Nina Simone - My Baby Cat
DYEAR=1993
DGENRE=Jazz
TTITLE0=My baby just cares for me
TTITLE1=Pirate Jenny
TTITLE2=For a while
TTITLE3=You took my teeth
TTITLE4=I need a little sugar in my bowl
TTITLE5=Backlash blues
TTITLE6=Do what you gotta do
TTITLE7=Mississippi goddamn
TTITLE8=See lime woman
TTITLE9=The other woman
TTITLE10=Four woman
TTITLE11=I sing just to know that I am alive
TTITLE12=You must have another lover
TTITLE13=Touching and caring
TTITLE14=It's cold out here
TTITLE15=Porgy
EXTD=
EXTT0=
EXTT1=
EXTT2=
EXTT3=
EXTT4=
EXTT5=
EXTT6=
EXTT7=
EXTT8=
EXTT9=
EXTT10=
EXTT11=
EXTT12=
EXTT13=
EXTT14=
EXTT15=
PLAYORDER=
